<svg xmlns="http://www.w3.org/2000/svg" xmlns:xlink="http://www.w3.org/1999/xlink" width="335" zoomAndPan="magnify" viewBox="0 0 251.25 163.5" height="218" preserveAspectRatio="xMidYMid meet" version="1.0"><defs><g/><clipPath id="09016110e0"><path d="M 0.0078125 0 L 250.492188 0 L 250.492188 163 L 0.0078125 163 Z M 0.0078125 0 " clip-rule="nonzero"/></clipPath><clipPath id="0b13fe5996"><path d="M 9.273438 54.84375 L 63 54.84375 L 63 119.894531 L 9.273438 119.894531 Z M 9.273438 54.84375 " clip-rule="nonzero"/></clipPath><clipPath id="9cce7a8f66"><path d="M 9.273438 59 L 63 59 L 63 119.894531 L 9.273438 119.894531 Z M 9.273438 59 " clip-rule="nonzero"/></clipPath><clipPath id="4c36327830"><path d="M 9.273438 54.84375 L 57 54.84375 L 57 116 L 9.273438 116 Z M 9.273438 54.84375 " clip-rule="nonzero"/></clipPath></defs><g clip-path="url(#09016110e0)"><path fill="#ffffff" d="M 0.0078125 0 L 250.492188 0 L 250.492188 163 L 0.0078125 163 Z M 0.0078125 0 " fill-opacity="1" fill-rule="nonzero"/><path fill="#ffffff" d="M 0.0078125 0 L 250.492188 0 L 250.492188 163 L 0.0078125 163 Z M 0.0078125 0 " fill-opacity="1" fill-rule="nonzero"/></g><g clip-path="url(#0b13fe5996)"><path fill="#f66962" d="M 62.726562 99.191406 C 62.726562 113.136719 50.019531 120.035156 37.386719 120.035156 C 30.347656 120.035156 22.242188 118.191406 15.789062 115.117188 C 15.6875 115.066406 15.601562 115.003906 15.527344 114.933594 L 15.523438 114.9375 L 9.796875 110.085938 L 9.800781 110.085938 C 9.449219 109.808594 9.300781 109.332031 9.472656 108.898438 L 15.128906 94.558594 C 15.378906 93.921875 16.175781 93.703125 16.71875 94.128906 C 20.515625 97.074219 25.085938 99.476562 29.96875 99.476562 C 31.636719 99.476562 34.082031 98.929688 35.011719 97.378906 L 32.195312 96.867188 C 27.964844 96.113281 24.078125 94.472656 21.28125 91.828125 L 16.671875 87.933594 C 16.300781 87.648438 15.945312 87.347656 15.609375 87.035156 C 15.601562 87.027344 15.59375 87.019531 15.585938 87.011719 C 12.851562 84.472656 11.140625 80.992188 11.140625 76.460938 C 11.140625 62.59375 23.769531 54.84375 36.476562 54.84375 C 42.851562 54.84375 48.730469 56.332031 54.246094 59.515625 C 54.292969 59.539062 54.332031 59.570312 54.367188 59.601562 C 54.371094 59.601562 54.378906 59.605469 54.382812 59.609375 C 54.390625 59.617188 54.402344 59.625 54.414062 59.636719 L 60.097656 64.460938 C 60.488281 64.726562 60.648438 65.230469 60.476562 65.675781 L 55.511719 78.628906 C 55.277344 79.234375 54.550781 79.476562 54.003906 79.128906 C 50.628906 76.988281 46.871094 75.402344 42.734375 75.402344 C 41.371094 75.402344 39.558594 75.78125 38.679688 76.925781 L 41.4375 77.546875 C 45.269531 78.40625 48.648438 79.773438 51.265625 81.828125 C 51.28125 81.839844 51.300781 81.855469 51.320312 81.867188 C 51.617188 82.105469 51.90625 82.351562 52.183594 82.605469 L 56.820312 86.550781 C 57.324219 86.933594 57.804688 87.335938 58.253906 87.769531 L 58.363281 87.863281 L 58.351562 87.863281 C 61.101562 90.554688 62.726562 94.234375 62.726562 99.191406 Z M 62.726562 99.191406 " fill-opacity="1" fill-rule="nonzero"/></g><g clip-path="url(#9cce7a8f66)"><path fill="#000000" d="M 62.726562 99.191406 C 62.726562 113.136719 50.019531 120.035156 37.386719 120.035156 C 30.347656 120.035156 22.242188 118.191406 15.789062 115.117188 C 15.6875 115.066406 15.601562 115.003906 15.527344 114.933594 L 15.523438 114.9375 L 9.796875 110.085938 L 9.800781 110.085938 C 9.859375 110.132812 9.925781 110.175781 9.996094 110.207031 C 16.449219 113.285156 24.554688 115.128906 31.59375 115.128906 C 44.226562 115.128906 56.933594 108.230469 56.933594 94.285156 C 56.933594 89.109375 55.15625 85.328125 52.183594 82.605469 L 56.820312 86.550781 C 57.324219 86.933594 57.804688 87.339844 58.253906 87.769531 L 58.363281 87.863281 L 58.351562 87.863281 C 61.101562 90.554688 62.726562 94.234375 62.726562 99.191406 Z M 30.664062 92.734375 L 26.402344 91.960938 C 22.738281 91.308594 19.332031 89.992188 16.671875 87.933594 L 21.285156 91.828125 C 24.078125 94.472656 27.964844 96.113281 32.195312 96.867188 L 35.011719 97.378906 C 35.25 96.980469 35.390625 96.523438 35.390625 95.988281 C 35.390625 93.355469 32.601562 93.121094 30.664062 92.734375 Z M 54.683594 60.769531 L 49.71875 73.722656 C 49.484375 74.328125 48.757812 74.566406 48.210938 74.21875 C 44.835938 72.082031 41.078125 70.496094 36.941406 70.496094 C 35.082031 70.496094 32.371094 71.191406 32.371094 73.59375 C 32.371094 75.765625 35.003906 76.074219 36.632812 76.460938 L 38.679688 76.925781 C 39.558594 75.78125 41.371094 75.402344 42.734375 75.402344 C 46.871094 75.402344 50.628906 76.988281 54.003906 79.128906 C 54.550781 79.476562 55.277344 79.238281 55.511719 78.628906 L 60.476562 65.675781 C 60.648438 65.230469 60.488281 64.726562 60.097656 64.460938 L 54.414062 59.636719 C 54.726562 59.914062 54.839844 60.367188 54.683594 60.769531 Z M 54.683594 60.769531 " fill-opacity="1" fill-rule="nonzero"/></g><g clip-path="url(#4c36327830)"><path fill="#f66962" d="M 31.59375 115.128906 C 44.226562 115.128906 56.933594 108.230469 56.933594 94.285156 C 56.933594 89.109375 55.15625 85.328125 52.183594 82.605469 C 51.90625 82.351562 51.617188 82.105469 51.320312 81.871094 C 51.300781 81.855469 51.285156 81.839844 51.265625 81.828125 C 48.648438 79.773438 45.269531 78.40625 41.4375 77.546875 L 38.679688 76.925781 L 36.632812 76.460938 C 35.003906 76.074219 32.371094 75.765625 32.371094 73.59375 C 32.371094 71.191406 35.082031 70.496094 36.941406 70.496094 C 41.078125 70.496094 44.835938 72.082031 48.210938 74.21875 C 48.757812 74.566406 49.484375 74.328125 49.71875 73.722656 L 54.683594 60.769531 C 54.839844 60.367188 54.726562 59.914062 54.414062 59.636719 C 54.402344 59.625 54.390625 59.617188 54.382812 59.609375 C 54.378906 59.605469 54.371094 59.601562 54.367188 59.601562 C 54.332031 59.570312 54.292969 59.539062 54.246094 59.515625 C 48.730469 56.332031 42.851562 54.84375 36.476562 54.84375 C 23.769531 54.84375 11.140625 62.59375 11.140625 76.460938 C 11.140625 80.988281 12.851562 84.472656 15.585938 87.011719 C 15.59375 87.019531 15.601562 87.027344 15.609375 87.035156 C 15.949219 87.347656 16.300781 87.648438 16.671875 87.933594 C 19.332031 89.988281 22.738281 91.308594 26.402344 91.960938 L 30.664062 92.734375 C 32.601562 93.121094 35.390625 93.355469 35.390625 95.988281 C 35.390625 96.523438 35.25 96.984375 35.011719 97.378906 C 34.082031 98.929688 31.636719 99.476562 29.96875 99.476562 C 25.085938 99.476562 20.515625 97.074219 16.71875 94.128906 C 16.175781 93.703125 15.378906 93.921875 15.128906 94.558594 L 9.472656 108.898438 C 9.300781 109.332031 9.449219 109.808594 9.800781 110.085938 C 9.859375 110.132812 9.925781 110.175781 9.996094 110.207031 C 16.449219 113.285156 24.554688 115.128906 31.59375 115.128906 Z M 49.929688 106.148438 C 49.210938 106.882812 48.054688 106.816406 47.328125 106.148438 C 46.589844 105.472656 46.65625 104.238281 47.328125 103.550781 C 47.667969 103.203125 47.992188 102.839844 48.300781 102.464844 C 48.320312 102.4375 48.429688 102.292969 48.464844 102.253906 C 48.503906 102.195312 48.542969 102.144531 48.542969 102.140625 C 48.671875 101.964844 48.792969 101.785156 48.914062 101.601562 C 49.167969 101.210938 49.402344 100.808594 49.617188 100.394531 C 49.734375 100.171875 49.839844 99.949219 49.945312 99.726562 C 49.957031 99.695312 50.023438 99.535156 50.046875 99.476562 C 50.0625 99.441406 50.074219 99.410156 50.078125 99.402344 C 50.441406 98.457031 50.703125 97.472656 50.867188 96.46875 C 50.875 96.417969 50.882812 96.363281 50.890625 96.308594 C 50.894531 96.277344 50.914062 96.113281 50.917969 96.066406 C 50.949219 95.789062 50.96875 95.511719 50.984375 95.230469 C 51.015625 94.691406 51.015625 94.15625 51 93.617188 C 50.972656 92.585938 51.867188 91.820312 52.839844 91.777344 C 53.851562 91.734375 54.648438 92.65625 54.675781 93.617188 C 54.804688 98.308594 53.21875 102.769531 49.929688 106.148438 Z M 53.765625 89.070312 C 53.808594 90.0625 52.890625 90.90625 51.925781 90.90625 C 50.898438 90.90625 50.132812 90.0625 50.089844 89.070312 C 50.046875 88.074219 50.964844 87.230469 51.925781 87.230469 C 52.957031 87.230469 53.722656 88.074219 53.765625 89.070312 Z M 53.765625 89.070312 " fill-opacity="1" fill-rule="nonzero"/></g><path fill="#ecedea" d="M 54.675781 93.617188 C 54.804688 98.308594 53.21875 102.769531 49.929688 106.148438 C 49.210938 106.882812 48.054688 106.8125 47.328125 106.148438 C 46.589844 105.46875 46.65625 104.238281 47.328125 103.550781 C 47.667969 103.203125 47.992188 102.839844 48.300781 102.464844 C 48.320312 102.4375 48.429688 102.292969 48.464844 102.25 C 48.503906 102.195312 48.542969 102.144531 48.542969 102.140625 C 48.671875 101.964844 48.792969 101.785156 48.914062 101.601562 C 49.167969 101.210938 49.402344 100.808594 49.617188 100.394531 C 49.734375 100.171875 49.839844 99.949219 49.945312 99.726562 C 49.957031 99.695312 50.023438 99.535156 50.046875 99.476562 C 50.0625 99.441406 50.074219 99.410156 50.078125 99.402344 C 50.441406 98.457031 50.703125 97.472656 50.867188 96.46875 C 50.875 96.417969 50.882812 96.363281 50.890625 96.308594 C 50.894531 96.277344 50.914062 96.113281 50.917969 96.066406 C 50.949219 95.789062 50.96875 95.511719 50.984375 95.230469 C 51.015625 94.691406 51.015625 94.15625 51 93.617188 C 50.972656 92.585938 51.867188 91.820312 52.839844 91.777344 C 53.851562 91.734375 54.648438 92.65625 54.675781 93.617188 Z M 51.925781 87.230469 C 50.964844 87.230469 50.046875 88.074219 50.089844 89.070312 C 50.132812 90.0625 50.898438 90.90625 51.925781 90.90625 C 52.890625 90.90625 53.808594 90.0625 53.765625 89.070312 C 53.722656 88.074219 52.957031 87.230469 51.925781 87.230469 Z M 51.925781 87.230469 " fill-opacity="1" fill-rule="nonzero"/><g fill="#000000" fill-opacity="1"><g transform="translate(68.049305, 109.484917)"><g><path d="M 1.75 -30.125 C 1.75 -30.800781 1.769531 -31.304688 1.8125 -31.640625 C 1.863281 -31.984375 1.988281 -32.375 2.1875 -32.8125 C 2.601562 -33.59375 3.742188 -33.984375 5.609375 -33.984375 C 7.398438 -33.984375 8.515625 -33.59375 8.953125 -32.8125 C 9.179688 -32.375 9.316406 -31.976562 9.359375 -31.625 C 9.410156 -31.269531 9.4375 -30.757812 9.4375 -30.09375 L 9.4375 -9.78125 C 9.4375 -8.726562 9.519531 -8.0625 9.6875 -7.78125 C 9.863281 -7.507812 10.25 -7.375 10.84375 -7.375 C 11.445312 -7.375 11.851562 -7.347656 12.0625 -7.296875 C 12.269531 -7.253906 12.519531 -7.132812 12.8125 -6.9375 C 13.394531 -6.550781 13.6875 -5.507812 13.6875 -3.8125 C 13.6875 -1.96875 13.394531 -0.84375 12.8125 -0.4375 C 12.050781 0.0820312 10.238281 0.171875 7.375 -0.171875 C 5.113281 -0.460938 3.648438 -1.207031 2.984375 -2.40625 C 2.160156 -3.84375 1.75 -6.125 1.75 -9.25 Z M 1.75 -30.125 "/></g></g></g><g fill="#000000" fill-opacity="1"><g transform="translate(82.390888, 109.484917)"><g><path d="M 24.03125 -14.3125 C 24.03125 -12.519531 23.582031 -11.191406 22.6875 -10.328125 C 21.800781 -9.460938 20.816406 -9.03125 19.734375 -9.03125 L 9.34375 -9.03125 C 9.34375 -8.21875 9.820312 -7.53125 10.78125 -6.96875 C 11.75 -6.414062 12.71875 -6.140625 13.6875 -6.140625 C 15.382812 -6.140625 16.710938 -6.316406 17.671875 -6.671875 L 18.15625 -6.84375 C 18.851562 -7.164062 19.4375 -7.328125 19.90625 -7.328125 C 20.84375 -7.328125 21.648438 -6.664062 22.328125 -5.34375 C 22.703125 -4.5625 22.890625 -3.890625 22.890625 -3.328125 C 22.890625 -0.734375 19.773438 0.5625 13.546875 0.5625 C 11.390625 0.5625 9.46875 0.191406 7.78125 -0.546875 C 6.101562 -1.296875 4.796875 -2.285156 3.859375 -3.515625 C 2.015625 -5.878906 1.09375 -8.523438 1.09375 -11.453125 C 1.09375 -15.128906 2.285156 -18.070312 4.671875 -20.28125 C 7.054688 -22.488281 10.03125 -23.59375 13.59375 -23.59375 C 17.65625 -23.59375 20.640625 -22.160156 22.546875 -19.296875 C 23.535156 -17.773438 24.03125 -16.113281 24.03125 -14.3125 Z M 14.78125 -13.03125 C 15.894531 -13.03125 16.453125 -13.5 16.453125 -14.4375 C 16.453125 -15.101562 16.191406 -15.640625 15.671875 -16.046875 C 15.160156 -16.460938 14.429688 -16.671875 13.484375 -16.671875 C 12.535156 -16.671875 11.59375 -16.28125 10.65625 -15.5 C 9.71875 -14.726562 9.25 -13.90625 9.25 -13.03125 Z M 14.78125 -13.03125 "/></g></g></g><g fill="#000000" fill-opacity="1"><g transform="translate(107.521546, 109.484917)"><g><path d="M 16.75 -20.65625 C 16.925781 -22.289062 18.082031 -23.109375 20.21875 -23.109375 C 21.363281 -23.109375 22.210938 -23.019531 22.765625 -22.84375 C 23.316406 -22.675781 23.703125 -22.367188 23.921875 -21.921875 C 24.140625 -21.484375 24.269531 -21.097656 24.3125 -20.765625 C 24.363281 -20.429688 24.390625 -19.925781 24.390625 -19.25 L 24.390625 -3.90625 C 24.390625 -3.226562 24.363281 -2.722656 24.3125 -2.390625 C 24.269531 -2.054688 24.148438 -1.671875 23.953125 -1.234375 C 23.535156 -0.472656 22.53125 -0.09375 20.9375 -0.09375 C 19.34375 -0.09375 18.273438 -0.285156 17.734375 -0.671875 C 17.203125 -1.066406 16.890625 -1.644531 16.796875 -2.40625 C 15.710938 -0.863281 13.90625 -0.09375 11.375 -0.09375 C 8.851562 -0.09375 6.507812 -1.242188 4.34375 -3.546875 C 2.175781 -5.859375 1.09375 -8.539062 1.09375 -11.59375 C 1.09375 -14.65625 2.179688 -17.332031 4.359375 -19.625 C 6.535156 -21.914062 8.925781 -23.0625 11.53125 -23.0625 C 12.53125 -23.0625 13.4375 -22.882812 14.25 -22.53125 C 15.070312 -22.1875 15.644531 -21.859375 15.96875 -21.546875 C 16.289062 -21.242188 16.550781 -20.945312 16.75 -20.65625 Z M 8.765625 -11.53125 C 8.765625 -10.570312 9.144531 -9.703125 9.90625 -8.921875 C 10.664062 -8.148438 11.585938 -7.765625 12.671875 -7.765625 C 13.753906 -7.765625 14.65625 -8.15625 15.375 -8.9375 C 16.09375 -9.726562 16.453125 -10.597656 16.453125 -11.546875 C 16.453125 -12.503906 16.109375 -13.390625 15.421875 -14.203125 C 14.734375 -15.023438 13.8125 -15.4375 12.65625 -15.4375 C 11.5 -15.4375 10.5625 -15.023438 9.84375 -14.203125 C 9.125 -13.390625 8.765625 -12.5 8.765625 -11.53125 Z M 8.765625 -11.53125 "/></g></g></g><g fill="#000000" fill-opacity="1"><g transform="translate(133.660938, 109.484917)"><g><path d="M 17.453125 -22.84375 C 18.015625 -22.675781 18.476562 -22.378906 18.84375 -21.953125 C 19.207031 -21.523438 19.390625 -20.84375 19.390625 -19.90625 C 19.390625 -18.976562 19.109375 -17.957031 18.546875 -16.84375 C 17.992188 -15.726562 17.191406 -15.171875 16.140625 -15.171875 C 15.609375 -15.171875 15.101562 -15.285156 14.625 -15.515625 C 14.144531 -15.753906 13.507812 -15.875 12.71875 -15.875 C 11.925781 -15.875 11.1875 -15.59375 10.5 -15.03125 C 9.8125 -14.476562 9.46875 -13.8125 9.46875 -13.03125 L 9.46875 -3.8125 C 9.46875 -3.144531 9.445312 -2.640625 9.40625 -2.296875 C 9.363281 -1.960938 9.222656 -1.578125 8.984375 -1.140625 C 8.546875 -0.378906 7.40625 0 5.5625 0 C 4.164062 0 3.160156 -0.25 2.546875 -0.75 C 2.078125 -1.15625 1.8125 -1.78125 1.75 -2.625 C 1.75 -2.914062 1.75 -3.34375 1.75 -3.90625 L 1.75 -19.296875 C 1.75 -19.972656 1.769531 -20.476562 1.8125 -20.8125 C 1.863281 -21.144531 1.988281 -21.519531 2.1875 -21.9375 C 2.601562 -22.71875 3.742188 -23.109375 5.609375 -23.109375 C 7.367188 -23.109375 8.46875 -22.773438 8.90625 -22.109375 C 9.226562 -21.640625 9.390625 -21.15625 9.390625 -20.65625 C 9.535156 -20.863281 9.742188 -21.113281 10.015625 -21.40625 C 10.296875 -21.695312 10.890625 -22.085938 11.796875 -22.578125 C 12.703125 -23.078125 13.5 -23.328125 14.1875 -23.328125 C 14.875 -23.328125 15.453125 -23.289062 15.921875 -23.21875 C 16.390625 -23.144531 16.898438 -23.019531 17.453125 -22.84375 Z M 17.453125 -22.84375 "/></g></g></g><g fill="#000000" fill-opacity="1"><g transform="translate(153.704063, 109.484917)"><g><path d="M 14.609375 -23.109375 C 17.523438 -23.109375 19.957031 -21.988281 21.90625 -19.75 C 23.851562 -17.519531 24.828125 -14.796875 24.828125 -11.578125 L 24.828125 -3.859375 C 24.828125 -3.179688 24.800781 -2.675781 24.75 -2.34375 C 24.707031 -2.007812 24.585938 -1.640625 24.390625 -1.234375 C 23.972656 -0.441406 22.832031 -0.046875 20.96875 -0.046875 C 18.882812 -0.046875 17.6875 -0.585938 17.375 -1.671875 C 17.195312 -2.160156 17.109375 -2.90625 17.109375 -3.90625 L 17.109375 -11.625 C 17.109375 -12.820312 16.765625 -13.753906 16.078125 -14.421875 C 15.390625 -15.097656 14.46875 -15.4375 13.3125 -15.4375 C 12.15625 -15.4375 11.21875 -15.082031 10.5 -14.375 C 9.789062 -13.675781 9.4375 -12.757812 9.4375 -11.625 L 9.4375 -3.859375 C 9.4375 -3.179688 9.410156 -2.675781 9.359375 -2.34375 C 9.316406 -2.007812 9.179688 -1.640625 8.953125 -1.234375 C 8.566406 -0.441406 7.4375 -0.046875 5.5625 -0.046875 C 3.726562 -0.046875 2.601562 -0.441406 2.1875 -1.234375 C 1.988281 -1.671875 1.863281 -2.054688 1.8125 -2.390625 C 1.769531 -2.722656 1.75 -3.226562 1.75 -3.90625 L 1.75 -19.4375 C 1.75 -20.070312 1.769531 -20.554688 1.8125 -20.890625 C 1.863281 -21.234375 2.003906 -21.609375 2.234375 -22.015625 C 2.640625 -22.742188 3.765625 -23.109375 5.609375 -23.109375 C 7.398438 -23.109375 8.5 -22.773438 8.90625 -22.109375 C 9.195312 -21.609375 9.34375 -21.007812 9.34375 -20.3125 C 9.457031 -20.507812 9.71875 -20.796875 10.125 -21.171875 C 10.539062 -21.554688 10.9375 -21.867188 11.3125 -22.109375 C 12.3125 -22.773438 13.410156 -23.109375 14.609375 -23.109375 Z M 14.609375 -23.109375 "/></g></g></g><g fill="#000000" fill-opacity="1"><g transform="translate(180.282036, 109.484917)"><g><path d="M 1.75 -19.25 C 1.75 -19.925781 1.769531 -20.429688 1.8125 -20.765625 C 1.863281 -21.097656 1.988281 -21.488281 2.1875 -21.9375 C 2.601562 -22.6875 3.742188 -23.0625 5.609375 -23.0625 C 7.015625 -23.0625 8.007812 -22.816406 8.59375 -22.328125 C 9.09375 -21.910156 9.359375 -21.28125 9.390625 -20.4375 C 9.421875 -20.144531 9.4375 -19.722656 9.4375 -19.171875 L 9.4375 -3.8125 C 9.4375 -3.144531 9.410156 -2.640625 9.359375 -2.296875 C 9.316406 -1.960938 9.179688 -1.578125 8.953125 -1.140625 C 8.566406 -0.378906 7.4375 0 5.5625 0 C 3.726562 0 2.601562 -0.394531 2.1875 -1.1875 C 1.988281 -1.625 1.863281 -2.003906 1.8125 -2.328125 C 1.769531 -2.648438 1.75 -3.160156 1.75 -3.859375 Z M 8.96875 -27.390625 C 8.75 -26.960938 8.359375 -26.660156 7.796875 -26.484375 C 7.242188 -26.316406 6.503906 -26.234375 5.578125 -26.234375 C 4.660156 -26.234375 3.925781 -26.316406 3.375 -26.484375 C 2.820312 -26.660156 2.4375 -26.96875 2.21875 -27.40625 C 2 -27.84375 1.863281 -28.226562 1.8125 -28.5625 C 1.769531 -28.90625 1.75 -29.410156 1.75 -30.078125 C 1.75 -30.753906 1.769531 -31.257812 1.8125 -31.59375 C 1.863281 -31.9375 1.988281 -32.3125 2.1875 -32.71875 C 2.601562 -33.507812 3.742188 -33.90625 5.609375 -33.90625 C 7.453125 -33.90625 8.566406 -33.507812 8.953125 -32.71875 C 9.179688 -32.28125 9.316406 -31.890625 9.359375 -31.546875 C 9.410156 -31.210938 9.4375 -30.707031 9.4375 -30.03125 C 9.4375 -29.363281 9.410156 -28.863281 9.359375 -28.53125 C 9.316406 -28.195312 9.1875 -27.816406 8.96875 -27.390625 Z M 8.96875 -27.390625 "/></g></g></g><g fill="#000000" fill-opacity="1"><g transform="translate(191.465836, 109.484917)"><g><path d="M 14.609375 -23.109375 C 17.523438 -23.109375 19.957031 -21.988281 21.90625 -19.75 C 23.851562 -17.519531 24.828125 -14.796875 24.828125 -11.578125 L 24.828125 -3.859375 C 24.828125 -3.179688 24.800781 -2.675781 24.75 -2.34375 C 24.707031 -2.007812 24.585938 -1.640625 24.390625 -1.234375 C 23.972656 -0.441406 22.832031 -0.046875 20.96875 -0.046875 C 18.882812 -0.046875 17.6875 -0.585938 17.375 -1.671875 C 17.195312 -2.160156 17.109375 -2.90625 17.109375 -3.90625 L 17.109375 -11.625 C 17.109375 -12.820312 16.765625 -13.753906 16.078125 -14.421875 C 15.390625 -15.097656 14.46875 -15.4375 13.3125 -15.4375 C 12.15625 -15.4375 11.21875 -15.082031 10.5 -14.375 C 9.789062 -13.675781 9.4375 -12.757812 9.4375 -11.625 L 9.4375 -3.859375 C 9.4375 -3.179688 9.410156 -2.675781 9.359375 -2.34375 C 9.316406 -2.007812 9.179688 -1.640625 8.953125 -1.234375 C 8.566406 -0.441406 7.4375 -0.046875 5.5625 -0.046875 C 3.726562 -0.046875 2.601562 -0.441406 2.1875 -1.234375 C 1.988281 -1.671875 1.863281 -2.054688 1.8125 -2.390625 C 1.769531 -2.722656 1.75 -3.226562 1.75 -3.90625 L 1.75 -19.4375 C 1.75 -20.070312 1.769531 -20.554688 1.8125 -20.890625 C 1.863281 -21.234375 2.003906 -21.609375 2.234375 -22.015625 C 2.640625 -22.742188 3.765625 -23.109375 5.609375 -23.109375 C 7.398438 -23.109375 8.5 -22.773438 8.90625 -22.109375 C 9.195312 -21.609375 9.34375 -21.007812 9.34375 -20.3125 C 9.457031 -20.507812 9.71875 -20.796875 10.125 -21.171875 C 10.539062 -21.554688 10.9375 -21.867188 11.3125 -22.109375 C 12.3125 -22.773438 13.410156 -23.109375 14.609375 -23.109375 Z M 14.609375 -23.109375 "/></g></g></g><g fill="#000000" fill-opacity="1"><g transform="translate(218.04381, 109.484917)"><g><path d="M 16.40625 -2.890625 C 15.289062 -1.429688 13.519531 -0.703125 11.09375 -0.703125 C 8.664062 -0.703125 6.390625 -1.816406 4.265625 -4.046875 C 2.148438 -6.285156 1.09375 -8.894531 1.09375 -11.875 C 1.09375 -14.863281 2.160156 -17.484375 4.296875 -19.734375 C 6.429688 -21.984375 8.769531 -23.109375 11.3125 -23.109375 C 12.3125 -23.109375 13.21875 -22.925781 14.03125 -22.5625 C 14.851562 -22.195312 15.414062 -21.859375 15.71875 -21.546875 C 16.03125 -21.242188 16.273438 -20.960938 16.453125 -20.703125 C 16.535156 -21.523438 16.832031 -22.144531 17.34375 -22.5625 C 17.851562 -22.988281 18.675781 -23.203125 19.8125 -23.203125 C 20.957031 -23.203125 21.789062 -23.113281 22.3125 -22.9375 C 22.84375 -22.757812 23.21875 -22.457031 23.4375 -22.03125 C 23.65625 -21.613281 23.785156 -21.242188 23.828125 -20.921875 C 23.878906 -20.597656 23.90625 -20.101562 23.90625 -19.4375 L 23.90625 -1.265625 C 23.90625 2.085938 22.734375 4.796875 20.390625 6.859375 C 18.054688 8.921875 15.425781 9.953125 12.5 9.953125 C 10.28125 9.953125 8.160156 9.410156 6.140625 8.328125 C 4.117188 7.242188 3.109375 6.265625 3.109375 5.390625 C 3.109375 4.253906 3.550781 3.25 4.4375 2.375 C 4.988281 1.757812 5.414062 1.332031 5.71875 1.09375 C 6.03125 0.863281 6.390625 0.75 6.796875 0.75 C 7.203125 0.75 7.625 0.921875 8.0625 1.265625 C 9.46875 2.347656 10.988281 2.890625 12.625 2.890625 C 13.738281 2.890625 14.644531 2.453125 15.34375 1.578125 C 16.050781 0.703125 16.40625 -0.347656 16.40625 -1.578125 Z M 8.59375 -11.859375 C 8.59375 -10.910156 8.960938 -10.054688 9.703125 -9.296875 C 10.453125 -8.535156 11.359375 -8.15625 12.421875 -8.15625 C 13.492188 -8.15625 14.378906 -8.539062 15.078125 -9.3125 C 15.785156 -10.09375 16.140625 -10.941406 16.140625 -11.859375 C 16.140625 -12.785156 15.800781 -13.648438 15.125 -14.453125 C 14.457031 -15.253906 13.550781 -15.65625 12.40625 -15.65625 C 11.269531 -15.65625 10.347656 -15.257812 9.640625 -14.46875 C 8.941406 -13.6875 8.59375 -12.816406 8.59375 -11.859375 Z M 8.59375 -11.859375 "/></g></g></g></svg>